{"title":"The.Big.Short.2015.BRRip.720p.x264.AAC-PRiSTiNE [P2PDL]","uid":13752373,"size":802308734,"categoryP":"video","categoryS":"hd___movies","magnet":"?xt=urn:btih:d33218fb69d79e983322621b4bbe46b4d694416f&amp;dn=The.Big.Short.2015.BRRip.720p.x264.AAC-PRiSTiNE+%5BP2PDL%5D&amp;tr=udp%3A%2F%2Ftracker.leechers-paradise.org%3A6969&amp;tr=udp%3A%2F%2Fzer0day.ch%3A1337&amp;tr=udp%3A%2F%2Fopen.demonii.com%3A1337&amp;tr=udp%3A%2F%2Ftracker.coppersurfer.tk%3A6969&amp;tr=udp%3A%2F%2Fexodus.desync.com%3A6969","seeders":1,"leechers":6,"uploader":"VYTOP2PDL","files":7,"time":1457168636,"description":"The.Big.Short.2015.BRRip.720p.x264.AAC-PRiSTiNE\r\n\r\n\r\nGenre: Biography, Comedy, Drama  \nhttp://www.imdb.com/title/tt1596363/\r\n\r\n\r\nFormat                                   : MPEG-4\r\nFile size                                : 751 MiB\r\nDuration                                 : 2h 10mn\r\nOverall bit rate                         : 806 Kbps\r\n\r\nVideo\r\nFormat                                   : AVC\r\nBit rate                                 : 724 Kbps\r\nWidth                                    : 1 264 pixels\r\nHeight                                   : 528 pixels\r\nDisplay aspect ratio                     : 2.40:1\r\nFrame rate mode                          : Constant\r\nFrame rate                               : 23.976 fps\r\nBit depth                                : 8 bits\r\nStream size                              : 673 MiB (90%)\r\nWriting library                          : x264\r\n\r\nAudio\r\nFormat                                   : AAC\r\nBit rate                                 : 79.9 Kbps\r\nChannel(s)                               : 2 channels\r\nChannel positions                        : Front: L R\r\nSampling rate                            : 48.0 KHz\r\nStream size                              : 74.4 MiB (10%)\r\nLanguage                                 : English\r\n\r\nSubtitle                                 : Yes (English)\r\n\r\nScreen Shot: (Click to view)\r\n \nhttp://ititli.com/X2B \nhttp://ititli.com/X2N \nhttp://ititli.com/X2P \nhttp://ititli.com/X2f \nhttp://ititli.com/X2u \nhttp://ititli.com/X2v \nhttp://ititli.com/X2R \nhttp://ititli.com/X2y \nhttp://ititli.com/X23\r\n\r\n----------------------------------------------------------------------------------------------------\r\n\r\n\r\nEncoder Notes: Looking For Early Access To Anything You Can Provide WEBDL, DVDScr, DVDR, BluRay,\r\nDirect Audio, Music Releases and Seedboxes. If You Got anything to offer please contact us.\r\n\r\nSupport us by donating BC - 1FgwdzPsd1y25Gea8wP1qni35uGCtmkRCD\r\n\r\nSend some love!\r\nFind us and join us!","torrent":{"xt":"urn:btih:d33218fb69d79e983322621b4bbe46b4d694416f","amp;dn":"The.Big.Short.2015.BRRip.720p.x264.AAC-PRiSTiNE+%5BP2PDL%5D","amp;tr":["udp%3A%2F%2Ftracker.leechers-paradise.org%3A6969","udp%3A%2F%2Fzer0day.ch%3A1337","udp%3A%2F%2Fopen.demonii.com%3A1337","udp%3A%2F%2Ftracker.coppersurfer.tk%3A6969","udp%3A%2F%2Fexodus.desync.com%3A6969"],"infoHash":"d33218fb69d79e983322621b4bbe46b4d694416f","infoHashBuffer":{"type":"Buffer","data":[211,50,24,251,105,215,158,152,51,34,98,27,75,190,70,180,214,148,65,111]},"announce":[],"urlList":[]}}